<svg height="512pt" viewBox="0 -17 512.00046 512" width="512pt" xmlns="http://www.w3.org/2000/svg"><path d="m54.355469 386.476562c16.574219-.273437 32.203125-7.753906 42.8125-20.480468 2.460937 9.074218 7.152343 17.390625 13.65625 24.183594 12.347656 12.324218 29.089843 19.230468 46.539062 19.199218 21.414063.140625 41.460938-10.503906 53.34375-28.324218 3.179688 6.699218 7.398438 12.855468 12.492188 18.246093-1.472657 4.347657-2.230469 8.902344-2.253907 13.492188 1.664063 34.808593 29.28125 62.773437 64.066407 64.878906 3.847656.265625 7.710937-.183594 11.394531-1.324219 14.605469-4.28125 29.710938-6.640625 44.925781-7.015625 25.214844 1.351563 50.332031 4.164063 75.222657 8.414063.464843.078125.9375.121094 1.40625.121094 29.214843-.0625 54.925781-19.289063 63.25-47.292969l28.773437-99.320313c3.808594-13.570312 2.179687-28.089844-4.539063-40.480468l-26.121093-61.730469c-.128907-.292969-.273438-.574219-.433594-.851563-6.082031-10.625-15.546875-18.90625-26.886719-23.519531v-95.957031c.015625-42.671875-34.554687-77.285156-77.226562-77.3125-12.554688-.179688-24.699219 4.460937-33.929688 12.972656-3.976562-27.597656-31.753906-44.375-57.625-44.375h-22.871094c-29.929687.00390625-54.226562 24.199219-54.355468 54.128906v1.578125c-8.855469-8.425781-20.675782-13.027343-32.898438-12.800781h-27.175781c-25.09375-.953125-47 16.84375-51.203125 41.597656-8.667969-5.328125-18.765625-7.867187-28.925781-7.277344-36.320313.042969-65.7500002 29.472657-65.792969 65.792969v189.097657c-.0195312 14.421874 5.699219 28.261718 15.898438 38.460937 10.199218 10.195313 24.035156 15.917969 38.457031 15.898437zm409.464843-150.308593 26.078126 61.644531c.113281.269531.238281.53125.375.785156 4.734374 8.535156 5.921874 18.589844 3.304687 27.992188l-28.75 99.222656c-6.097656 20.496094-24.792969 34.660156-46.175781 34.988281-25.574219-4.410156-51.394532-7.257812-77.320313-8.535156-16.792969.382813-33.464843 2.964844-49.585937 7.679687-1.71875.574219-3.523438.824219-5.332032.734376-25.996093-1.273438-46.867187-21.914063-48.417968-47.898438 0-.40625.117187-.808594.144531-1.21875 10.15625 6.109375 21.792969 9.324219 33.644531 9.300781 28.894532-.300781 54.765625-17.960937 65.570313-44.757812.761719.855469 1.5625 1.707031 2.398437 2.5625 18.828125 18.769531 47.101563 24.363281 71.660156 14.179687 24.558594-10.183594 40.574219-34.144531 40.597657-60.730468v-108.152344c4.820312 3.109375 8.863281 7.285156 11.808593 12.203125zm-446.753906-93.148438c.027344-26.898437 21.828125-48.699219 48.726563-48.726562 7.242187-.75 14.511719 1.132812 20.480469 5.308593 4.875 4.835938 7.609374 11.421876 7.59375 18.285157v1.582031c0 4.710938 3.820312 8.53125 8.53125 8.53125 4.714843 0 8.535156-3.820312 8.535156-8.53125v-24.535156c-.4375-9.414063 3.117187-18.574219 9.785156-25.234375 6.664062-6.660157 15.832031-10.199219 25.242188-9.753907h27.136718c21.933594 0 31.746094 18.691407 31.746094 37.207032v5.246094c0 4.714843 3.820312 8.535156 8.53125 8.535156 4.714844 0 8.535156-3.820313 8.535156-8.535156v-4.972657l1.195313-43.066406c.015625-20.574219 16.675781-37.25 37.246093-37.292969h22.871094c19.710938 0 41.042969 13.046875 41.042969 34.132813v34.132812c0 .078125.042969.136719.042969.214844s-.042969.136719-.042969.214844v8.105469c0 4.710937 3.820313 8.53125 8.535156 8.53125 4.710938 0 8.53125-3.820313 8.53125-8.53125v-8.105469c0-.078125-.042969-.136719-.042969-.214844s.042969-.136719.042969-.214844c0-21.707031 13.757813-36.863281 33.453125-36.863281 33.242188.035156 60.171875 27 60.160156 60.246094v223.402344c-.003906 19.691406-11.855468 37.449218-30.042968 45-18.183594 7.554687-39.128906 3.421874-53.082032-10.472657-7.253906-7.324219-10.488281-17.972656-10.488281-34.527343v-152.917969c0-4.710938-3.820312-8.53125-8.53125-8.53125-4.714843 0-8.535156 3.820312-8.535156 8.53125v175.789062c-1.722656 27.640625-24.785156 49.089844-52.480469 48.808594-12.941406.046875-25.355468-5.117187-34.4375-14.335937-9.503906-9-15.070312-21.390626-15.480468-34.472657v-158.722656c0-4.710937-3.820313-8.53125-8.535157-8.53125-4.710937 0-8.53125 3.820313-8.53125 8.53125v147.285156c.308594 12.792969-4.550781 25.171875-13.480469 34.339844-8.925781 9.167969-21.167968 14.355469-33.964843 14.386719-12.921875.027344-25.320313-5.082032-34.476563-14.199219-8.496094-10.292969-12.765625-23.425781-11.945312-36.746094v-128c0-4.710937-3.820313-8.53125-8.535156-8.53125-4.710938 0-8.53125 3.820313-8.53125 8.53125v116.523438c-.777344 21.5-18.011719 38.753906-39.511719 39.554687-9.894531.019532-19.394531-3.902344-26.390625-10.898437-7-7-10.921875-16.496094-10.898438-26.394531zm0 0"/></svg>